<mxfile host="app.diagrams.net" agent="Mozilla/5.0 (Windows NT 10.0; Win64; x64) AppleWebKit/537.36 (KHTML, like Gecko) Chrome/131.0.0.0 Safari/537.36" version="24.9.1">
  <diagram name="페이지-1" id="MEDqTek99_4rOhDPI1kB">
    <mxGraphModel dx="1461" dy="767" grid="0" gridSize="10" guides="1" tooltips="1" connect="1" arrows="1" fold="1" page="1" pageScale="1" pageWidth="1169" pageHeight="827" math="0" shadow="0">
      <root>
        <mxCell id="0" />
        <mxCell id="1" parent="0" />
        <mxCell id="_nwc_Lyohx3UPhjQKPG4-30" value="" style="shape=image;verticalLabelPosition=bottom;labelBackgroundColor=default;verticalAlign=top;aspect=fixed;imageAspect=0;image=https://st3.depositphotos.com/25673058/34688/v/450/depositphotos_346885176-stock-illustration-artificial-intelligence-powered-human-brain.jpg;" vertex="1" parent="1">
          <mxGeometry x="233" y="411" width="222" height="222" as="geometry" />
        </mxCell>
        <mxCell id="_nwc_Lyohx3UPhjQKPG4-6" value="" style="html=1;shadow=0;dashed=0;align=center;verticalAlign=middle;shape=mxgraph.arrows2.arrow;dy=0.6;dx=40;notch=0;" vertex="1" parent="1">
          <mxGeometry x="307" y="146" width="100" height="70" as="geometry" />
        </mxCell>
        <mxCell id="_nwc_Lyohx3UPhjQKPG4-9" value="" style="html=1;shadow=0;dashed=0;align=center;verticalAlign=middle;shape=mxgraph.arrows2.arrow;dy=0.6;dx=40;notch=0;rotation=-60;" vertex="1" parent="1">
          <mxGeometry x="385" y="336" width="100" height="70" as="geometry" />
        </mxCell>
        <mxCell id="_nwc_Lyohx3UPhjQKPG4-11" value="" style="html=1;shadow=0;dashed=0;align=center;verticalAlign=middle;shape=mxgraph.arrows2.arrow;dy=0.6;dx=40;notch=0;rotation=-180;" vertex="1" parent="1">
          <mxGeometry x="294" y="210" width="100" height="70" as="geometry" />
        </mxCell>
        <mxCell id="_nwc_Lyohx3UPhjQKPG4-14" value="1" style="ellipse;whiteSpace=wrap;html=1;aspect=fixed;" vertex="1" parent="1">
          <mxGeometry x="329" y="122" width="30" height="30" as="geometry" />
        </mxCell>
        <mxCell id="_nwc_Lyohx3UPhjQKPG4-8" value="" style="html=1;shadow=0;dashed=0;align=center;verticalAlign=middle;shape=mxgraph.arrows2.arrow;dy=0.6;dx=40;notch=0;rotation=120;" vertex="1" parent="1">
          <mxGeometry x="450" y="365" width="100" height="70" as="geometry" />
        </mxCell>
        <mxCell id="_nwc_Lyohx3UPhjQKPG4-17" value="2" style="ellipse;whiteSpace=wrap;html=1;aspect=fixed;" vertex="1" parent="1">
          <mxGeometry x="534" y="381" width="30" height="30" as="geometry" />
        </mxCell>
        <mxCell id="_nwc_Lyohx3UPhjQKPG4-18" value="3" style="ellipse;whiteSpace=wrap;html=1;aspect=fixed;" vertex="1" parent="1">
          <mxGeometry x="377" y="347" width="30" height="30" as="geometry" />
        </mxCell>
        <mxCell id="_nwc_Lyohx3UPhjQKPG4-19" value="4" style="ellipse;whiteSpace=wrap;html=1;aspect=fixed;" vertex="1" parent="1">
          <mxGeometry x="342" y="273" width="30" height="30" as="geometry" />
        </mxCell>
        <mxCell id="_nwc_Lyohx3UPhjQKPG4-20" value="" style="shape=image;verticalLabelPosition=bottom;labelBackgroundColor=default;verticalAlign=top;aspect=fixed;imageAspect=0;image=https://cdn-icons-png.flaticon.com/512/5662/5662522.png;" vertex="1" parent="1">
          <mxGeometry x="130" y="140" width="150" height="150" as="geometry" />
        </mxCell>
        <mxCell id="_nwc_Lyohx3UPhjQKPG4-22" value="" style="shape=image;verticalLabelPosition=bottom;labelBackgroundColor=default;verticalAlign=top;aspect=fixed;imageAspect=0;image=https://cdn-icons-png.flaticon.com/512/5968/5968672.png;" vertex="1" parent="1">
          <mxGeometry x="590" y="108" width="40" height="40" as="geometry" />
        </mxCell>
        <mxCell id="_nwc_Lyohx3UPhjQKPG4-23" value="" style="shape=image;verticalLabelPosition=bottom;labelBackgroundColor=default;verticalAlign=top;aspect=fixed;imageAspect=0;image=https://cdn-icons-png.flaticon.com/512/4299/4299956.png;" vertex="1" parent="1">
          <mxGeometry x="607" y="68" width="40" height="40" as="geometry" />
        </mxCell>
        <mxCell id="_nwc_Lyohx3UPhjQKPG4-24" value="" style="shape=image;verticalLabelPosition=bottom;labelBackgroundColor=default;verticalAlign=top;aspect=fixed;imageAspect=0;image=https://cdn.iconscout.com/icon/free/png-256/free-node-js-1174925.png;" vertex="1" parent="1">
          <mxGeometry x="567" y="68" width="40" height="40" as="geometry" />
        </mxCell>
        <mxCell id="_nwc_Lyohx3UPhjQKPG4-27" value="" style="shape=image;verticalLabelPosition=bottom;labelBackgroundColor=default;verticalAlign=top;aspect=fixed;imageAspect=0;image=https://cdn-icons-png.flaticon.com/512/622/622339.png;" vertex="1" parent="1">
          <mxGeometry x="418" y="100" width="173" height="173" as="geometry" />
        </mxCell>
        <mxCell id="_nwc_Lyohx3UPhjQKPG4-25" value="" style="shape=image;verticalLabelPosition=bottom;labelBackgroundColor=default;verticalAlign=top;aspect=fixed;imageAspect=0;image=https://i.namu.wiki/i/Trhh3NbX78ZqUJyFblACvejsfPNdAXXN8jQtPo10nSVq7Bk1ZvDKB9d1balCxMLeWXDbZ8U_R1XWhuIwI1dVFA.svg;" vertex="1" parent="1">
          <mxGeometry x="398" y="429" width="40" height="40" as="geometry" />
        </mxCell>
        <mxCell id="_nwc_Lyohx3UPhjQKPG4-33" value="&lt;font face=&quot;Georgia&quot; style=&quot;font-size: 36px;&quot;&gt;SERVER&lt;/font&gt;" style="text;html=1;align=center;verticalAlign=middle;whiteSpace=wrap;rounded=0;" vertex="1" parent="1">
          <mxGeometry x="477" y="283" width="60" height="30" as="geometry" />
        </mxCell>
        <mxCell id="_nwc_Lyohx3UPhjQKPG4-36" value="&lt;font face=&quot;Georgia&quot;&gt;&lt;span style=&quot;font-size: 36px;&quot;&gt;AI MODEL&lt;/span&gt;&lt;/font&gt;" style="text;html=1;align=center;verticalAlign=middle;whiteSpace=wrap;rounded=0;" vertex="1" parent="1">
          <mxGeometry x="200" y="625" width="288" height="30" as="geometry" />
        </mxCell>
      </root>
    </mxGraphModel>
  </diagram>
</mxfile>
